<?xml version="1.0" encoding="utf-8"?>
<!-- Generator: Adobe Illustrator 18.1.1, SVG Export Plug-In . SVG Version: 6.00 Build 0)  -->
<svg version="1.1" id="Layer_1" xmlns="http://www.w3.org/2000/svg" xmlns:xlink="http://www.w3.org/1999/xlink" x="0px" y="0px"
	 viewBox="-49 -5 100 100" enable-background="new -49 -5 100 100" xml:space="preserve">
<linearGradient id="SVGID_1_" gradientUnits="userSpaceOnUse" x1="-21.274" y1="53.0147" x2="25.8666" y2="5.8742">
	<stop  offset="0" style="stop-color:#70DBFF"/>
	<stop  offset="1" style="stop-color:#9DF2F0"/>
</linearGradient>
<path fill="url(#SVGID_1_)" d="M2.3-3.9C-16.1-3.9-31,11-31,29.4s14.9,33.3,33.3,33.3s33.3-14.9,33.3-33.3S20.7-3.9,2.3-3.9z
	 M2.3,8.8c3.3,0,6.4,0.8,9.1,2.1l-27.7,27.7c-1.4-2.8-2.1-5.9-2.1-9.1C-18.4,18-9.1,8.8,2.3,8.8z M2.3,50.1c-3.3,0-6.4-0.8-9.1-2.1
	l27.7-27.7c1.4,2.8,2.1,5.9,2.1,9.1C23,40.9,13.7,50.1,2.3,50.1z"/>
</svg>
